<mxfile host="65bd71144e">
    <diagram id="59p-5U52J_hxt0E3vfaL" name="Page-1">
        <mxGraphModel dx="866" dy="-333" grid="1" gridSize="10" guides="1" tooltips="1" connect="1" arrows="1" fold="1" page="1" pageScale="1" pageWidth="10" pageHeight="10" math="0" shadow="0">
            <root>
                <mxCell id="0"/>
                <mxCell id="1" parent="0"/>
                <mxCell id="21" value="" style="rounded=1;whiteSpace=wrap;html=1;fillColor=none;strokeColor=#d6b656;fontFamily=仿宋;strokeWidth=2;" vertex="1" parent="1">
                    <mxGeometry x="-145" y="730" width="335" height="110" as="geometry"/>
                </mxCell>
                <mxCell id="16" value="" style="rounded=1;whiteSpace=wrap;html=1;fillColor=none;strokeColor=#6c8ebf;fontFamily=仿宋;strokeWidth=2;" vertex="1" parent="1">
                    <mxGeometry x="-310" y="720" width="255" height="110" as="geometry"/>
                </mxCell>
                <mxCell id="32" style="edgeStyle=orthogonalEdgeStyle;html=1;exitX=1;exitY=0.5;exitDx=0;exitDy=0;entryX=0;entryY=0.5;entryDx=0;entryDy=0;fillColor=#fff2cc;strokeColor=#d6b656;strokeWidth=2;" edge="1" parent="1" source="18" target="30">
                    <mxGeometry relative="1" as="geometry"/>
                </mxCell>
                <mxCell id="18" value="设备" style="rounded=1;whiteSpace=wrap;html=1;fillColor=#f5f5f5;fontColor=#333333;strokeColor=#666666;fontFamily=仿宋;" vertex="1" parent="1">
                    <mxGeometry x="-130" y="785" width="60" height="25" as="geometry"/>
                </mxCell>
                <mxCell id="25" style="edgeStyle=none;html=1;fillColor=#dae8fc;strokeColor=#6c8ebf;fontFamily=仿宋;strokeWidth=2;" edge="1" parent="1" source="19" target="18">
                    <mxGeometry relative="1" as="geometry"/>
                </mxCell>
                <mxCell id="19" value="供应商响应设备信息" style="rounded=1;whiteSpace=wrap;html=1;fillColor=#dae8fc;strokeColor=#6c8ebf;fontFamily=仿宋;" vertex="1" parent="1">
                    <mxGeometry x="-295" y="778" width="120" height="37.5" as="geometry"/>
                </mxCell>
                <mxCell id="22" value="需求调查&lt;span style=&quot;background-color: transparent;&quot;&gt;分类&lt;/span&gt;" style="text;html=1;align=left;verticalAlign=middle;resizable=0;points=[];autosize=1;strokeColor=none;fillColor=none;fontFamily=黑体;fontSize=14;" vertex="1" parent="1">
                    <mxGeometry x="-305" y="725" width="110" height="30" as="geometry"/>
                </mxCell>
                <mxCell id="23" value="设备管理&lt;span style=&quot;background-color: transparent;&quot;&gt;分类&lt;/span&gt;" style="text;html=1;align=left;verticalAlign=middle;resizable=0;points=[];autosize=1;strokeColor=none;fillColor=none;fontFamily=黑体;fontSize=14;" vertex="1" parent="1">
                    <mxGeometry x="100" y="740" width="110" height="30" as="geometry"/>
                </mxCell>
                <mxCell id="26" value="种类" style="rounded=1;whiteSpace=wrap;html=1;fillColor=#f5f5f5;fontColor=#333333;strokeColor=#666666;fontFamily=仿宋;" vertex="1" parent="1">
                    <mxGeometry x="-130" y="750" width="60" height="25" as="geometry"/>
                </mxCell>
                <mxCell id="35" style="edgeStyle=orthogonalEdgeStyle;html=1;exitX=1;exitY=0.5;exitDx=0;exitDy=0;entryX=0;entryY=0.5;entryDx=0;entryDy=0;strokeWidth=2;fillColor=#fff2cc;strokeColor=#d6b656;" edge="1" parent="1" source="30" target="34">
                    <mxGeometry relative="1" as="geometry"/>
                </mxCell>
                <mxCell id="30" value="供应商填报记录" style="rounded=1;fillColor=#fff2cc;strokeColor=#d6b656;fontFamily=仿宋;fontColor=default;whiteSpace=wrap;html=1;" vertex="1" parent="1">
                    <mxGeometry x="-30" y="780.5" width="70" height="35" as="geometry"/>
                </mxCell>
                <mxCell id="34" value="匹配后的设备" style="rounded=1;fillColor=#fff2cc;strokeColor=#d6b656;fontFamily=仿宋;fontColor=default;whiteSpace=wrap;html=1;strokeWidth=2;" vertex="1" parent="1">
                    <mxGeometry x="105" y="780.5" width="70" height="35" as="geometry"/>
                </mxCell>
                <mxCell id="36" value="" style="sketch=0;aspect=fixed;pointerEvents=1;shadow=0;dashed=0;html=1;strokeColor=#d6b656;labelPosition=center;verticalLabelPosition=bottom;verticalAlign=top;align=center;fillColor=#fff2cc;shape=mxgraph.mscae.enterprise.filter" vertex="1" parent="1">
                    <mxGeometry x="57" y="785.5" width="27.78" height="25" as="geometry"/>
                </mxCell>
                <mxCell id="38" value="取第一条" style="text;html=1;align=center;verticalAlign=middle;resizable=0;points=[];autosize=1;strokeColor=none;fillColor=none;fontFamily=仿宋;fontSize=10;" vertex="1" parent="1">
                    <mxGeometry x="40.89" y="765" width="60" height="30" as="geometry"/>
                </mxCell>
            </root>
        </mxGraphModel>
    </diagram>
</mxfile>